<?xml version="1.0" encoding="utf-8"?>
<!-- Generator: Adobe Illustrator 26.5.0, SVG Export Plug-In . SVG Version: 6.00 Build 0)  -->
<svg version="1.1" id="Ebene_1" xmlns="http://www.w3.org/2000/svg" xmlns:xlink="http://www.w3.org/1999/xlink" x="0px" y="0px"
	 viewBox="0 0 16 16" style="enable-background:new 0 0 16 16;" xml:space="preserve">
	<style>
	.mail-theme-background {
		fill: #0078e6;
		fill:var(--mail-background-color, #0078e6);
	}
	.mail-theme-background2 {
		fill: #025fb4;
		fill:var(--mail-background-color2, #025fb4);
	}
	.mail-theme-color {
		fill:var(--mail-color, #ffffff);
	}
	</style>
<path class="mail-theme-background2" d="M0,2v12h12.7V3.8H5.1L4,2H0z"/>
<rect x="2" class="mail-theme-background" width="11" height="11"/>
<g>
	<path class="mail-theme-color" d="M3,2.1l4.5,2.2L12,2.1C11.9,1.5,11.4,1,10.9,1H4.1C3.6,1,3,1.5,3,2.1z"/>
	<path class="mail-theme-color" d="M12,3.3L7.5,5.6L3,3.3v3.3c0,0.6,0.5,1.1,1.1,1.1h6.8c0.6,0,1.1-0.5,1.1-1.1V3.3L12,3.3z"/>
</g>
<path class="mail-theme-background" d="M8.3,6.1L6.6,7.4h-4L0,14h13l3-7.9H8.3z"/>
</svg>
