<?xml version="1.0" encoding="utf-8"?>
<svg version="1.1" id="Ebene_1" xmlns="http://www.w3.org/2000/svg" xmlns:xlink="http://www.w3.org/1999/xlink" x="0px" y="0px" viewBox="0 0 16 16" style="enable-background:new 0 0 16 16;" xml:space="preserve">
<path fill="#016c92" class="mail-theme-folder-background" d="M0,2v12h12.7V3.8H5.1L4,2H0z"/>
<path fill="#fff" stroke="#000" class="mail-theme-mail" d="M2.8,2.7l4.8,3.2c0.4,0.3,0.9,0.3,1.3,0l4.8-3.2 M4,9.3h8.5c0.7,0,1.2-0.5,1.2-1.2V2c0-0.7-0.5-1.2-1.2-1.2H4C3.3,0.8,2.8,1.3,2.8,2v6.1C2.8,8.8,3.4,9.3,4,9.3z"/>
<path fill="#0394c8" class="mail-theme-folder-foreground" d="M8.3,6.1L6.6,7.4h-4L0,14h13l3-7.9H8.3z"/>
</svg>
