<?xml version="1.0" encoding="utf-8"?>
<!-- Generator: Adobe Illustrator 26.5.0, SVG Export Plug-In . SVG Version: 6.00 Build 0)  -->
<svg version="1.1" id="Ebene_1" xmlns="http://www.w3.org/2000/svg" xmlns:xlink="http://www.w3.org/1999/xlink" x="0px" y="0px"
	 viewBox="0 0 64 64" style="enable-background:new 0 0 64 64;" xml:space="preserve">
<path style="fill-rule:evenodd;clip-rule:evenodd;fill:#331F07;" d="M54.7,15.5H32l-6-6H0V55h54.7V15.5z"/>
<g>
	<path style="fill:#D3D3D3;" d="M9.4,22.6L27,31.4l17.6-8.8c-0.2-2.3-2.2-4.1-4.3-4.1H13.7C11.5,18.3,9.6,20.3,9.4,22.6z"/>
	<path style="fill:#D3D3D3;" d="M44.4,27.5L27,36.3L9.4,27.5v12.9c0,2.3,2,4.3,4.3,4.3h26.4c2.3,0,4.3-2,4.3-4.3V27.5L44.4,27.5z"/>
</g>
<path style="fill-rule:evenodd;clip-rule:evenodd;fill:#4C3216;" d="M9.2,35.5h26l6-5.2H64L54.8,55H0L9.2,35.5z"/>
</svg>
