<?xml version="1.0" encoding="UTF-8"?><svg id="uuid-05fecda7-3ef4-4957-ac45-0522a66e697b" xmlns="http://www.w3.org/2000/svg" viewBox="0 0 20 20" fill="currentColor">
	<style>
		.mail-group-edit-pencil-outer,
		[data-color-scheme="light"] .mail-group-edit-pencil-outer {
		fill:#fff;
		}
		.mail-group-edit-pencil-inner,
		[data-color-scheme="light"] .mail-group-edit-pencil-inner {
		fill:#000;
		}
		[data-color-scheme="auto"] .mail-group-edit-pencil-outer {
		fill:#fff;
		@media (prefers-color-scheme: dark) {
		fill:#000;
		}
		}
		[data-color-scheme="auto"] .mail-group-edit-pencil-inner {
		fill:#000;
		@media (prefers-color-scheme: dark) {
		fill:#fff;
		}
		}
		[data-color-scheme="dark"] .mail-group-edit-pencil-outer {
		fill:#000;
		}
		[data-color-scheme="dark"] .mail-group-edit-pencil-inner {
		fill:#fff;
		}
	</style><path d="m11.9,5.4c0,1.32-1.07,2.39-2.39,2.39s-2.39-1.07-2.39-2.39,1.07-2.39,2.39-2.39,2.39,1.07,2.39,2.39Zm3.98,1.59c0,.88-.71,1.59-1.59,1.59s-1.59-.71-1.59-1.59.71-1.59,1.59-1.59,1.59.71,1.59,1.59Zm-3.18,5.57c0-1.76-1.42-3.18-3.18-3.18s-3.18,1.42-3.18,3.18v2.39h6.37v-2.39Zm-6.37-5.57c0,.88-.71,1.59-1.59,1.59s-1.59-.71-1.59-1.59.71-1.59,1.59-1.59,1.59.71,1.59,1.59Zm7.96,7.96v-2.39c0-.81-.2-1.6-.6-2.31,1.28-.33,2.58.44,2.91,1.72.05.19.07.39.07.59v2.39h-2.39Zm-8.95-4.7c-.39.71-.6,1.5-.6,2.31v2.39h-2.39v-2.39c0-1.32,1.07-2.39,2.39-2.39.2,0,.4.03.6.08Z"/><path class="mail-group-edit-pencil-outer" d="m7.5,19.71l.05-2.92c0-.3.12-.59.33-.81l8.25-8.56c.24-.25.64-.26.89-.03l1.61,1.49,1.1,1.15c.29.3.23,1.76-.06,2.06l-7.2,7.07c-.2.2-1.27.55-1.55.55h-3.42Z"/><path class="mail-group-edit-pencil-inner" d="m14.55,10.26l-6.08,6.08c-.14.14-.22.34-.22.54v2.28h2.28c.2,0,.4-.08.54-.22l6.08-6.08s-2.6-2.6-2.6-2.6Zm-.22,1.3l.38.38-3.8,3.8-.38-.38,3.8-3.8Zm-3.8,6.84h-.76v-.76h-.76v-.76l.76-.76,1.52,1.52-.76.76Zm7.38-6.31l1.03-1.03c.15-.15.15-.39,0-.54l-2.06-2.06c-.15-.15-.39-.15-.54,0l-1.03,1.03s2.6,2.6,2.6,2.6Z"/></svg>
