<?xml version="1.0" encoding="UTF-8"?><svg id="a" xmlns="http://www.w3.org/2000/svg" viewBox="0 0 86 128" width="86" height="128"><path d="M2,2H84V18H2V2Zm0,18H84V116H2V20Zm0,98H84v8H2v-8Z" style="fill:#333;"/><g><path d="M48.64,12.19v-3.86h.54l1.24,1.95c.29,.45,.51,.86,.69,1.25h.01c-.05-.52-.06-.99-.06-1.59v-1.61h.47v3.86h-.5l-1.22-1.96c-.27-.43-.53-.87-.72-1.29h-.02c.03,.49,.04,.96,.04,1.6v1.65h-.47Z" style="fill:#fff;"/><path d="M54.4,10.38h-1.5v1.39h1.67v.42h-2.17v-3.86h2.08v.42h-1.58v1.22h1.5v.41Z" style="fill:#fff;"/><path d="M55.9,12.19l-.98-3.86h.53l.46,1.95c.11,.48,.22,.96,.29,1.33h.01c.06-.38,.18-.84,.32-1.34l.51-1.95h.52l.47,1.96c.11,.46,.21,.92,.27,1.32h.01c.08-.42,.19-.85,.31-1.33l.51-1.95h.51l-1.09,3.86h-.52l-.49-2.01c-.12-.49-.2-.87-.25-1.26h-.01c-.07,.38-.15,.76-.3,1.26l-.55,2.01h-.52Z" style="fill:#fff;"/><path d="M60.04,11.58c.22,.14,.55,.25,.89,.25,.51,0,.81-.27,.81-.66,0-.36-.21-.57-.73-.77-.63-.22-1.02-.55-1.02-1.09,0-.6,.5-1.05,1.25-1.05,.4,0,.68,.09,.85,.19l-.14,.41c-.13-.07-.38-.18-.73-.18-.53,0-.73,.31-.73,.58,0,.36,.23,.54,.77,.74,.65,.25,.98,.57,.98,1.13,0,.59-.44,1.11-1.35,1.11-.37,0-.78-.11-.98-.25l.13-.42Z" style="fill:#fff;"/><path d="M62.93,8.33h.5v3.44h1.65v.42h-2.15v-3.86Z" style="fill:#fff;"/><path d="M67.63,10.38h-1.5v1.39h1.67v.42h-2.17v-3.86h2.08v.42h-1.58v1.22h1.5v.41Z" style="fill:#fff;"/><path d="M69.27,8.76h-1.17v-.42h2.86v.42h-1.18v3.43h-.5v-3.43Z" style="fill:#fff;"/><path d="M72.33,8.76h-1.17v-.42h2.86v.42h-1.18v3.43h-.5v-3.43Z" style="fill:#fff;"/><path d="M76.44,10.38h-1.5v1.39h1.67v.42h-2.17v-3.86h2.08v.42h-1.58v1.22h1.5v.41Z" style="fill:#fff;"/><path d="M77.26,8.39c.25-.05,.61-.08,.96-.08,.53,0,.88,.1,1.12,.31,.2,.17,.3,.43,.3,.73,0,.51-.32,.85-.73,.98v.02c.3,.1,.47,.38,.57,.78,.13,.54,.22,.91,.3,1.06h-.52c-.06-.11-.15-.44-.26-.92-.12-.53-.32-.73-.77-.75h-.47v1.67h-.5v-3.81Zm.5,1.76h.51c.53,0,.87-.29,.87-.73,0-.5-.36-.72-.89-.72-.24,0-.41,.02-.49,.05v1.41Z" style="fill:#fff;"/></g><rect x="5.24" y="4.96" width="21.45" height="10.31" style="fill:#fff;"/></svg>
