<?xml version="1.0" encoding="utf-8"?>
<!-- Generator: Adobe Illustrator 26.5.0, SVG Export Plug-In . SVG Version: 6.00 Build 0)  -->
<svg version="1.1" id="Ebene_1" xmlns="http://www.w3.org/2000/svg" xmlns:xlink="http://www.w3.org/1999/xlink" x="0px" y="0px"
	 viewBox="0 0 32 32" style="enable-background:new 0 0 32 32;" xml:space="preserve">
	<style>
	.mail-theme-background {
		fill: #0078e6;
		fill:var(--mail-background-color, #0078e6);
	}
	.mail-theme-color {
		fill:var(--mail-color, #ffffff);
	}
	</style>
<rect class="mail-theme-background" width="32" height="32"/>
<path class="mail-theme-color" style="fill-rule:evenodd;clip-rule:evenodd;" d="M17.7,8.3c-0.4-1.8-2.9-1.8-3.4,0c-0.2,0.9-1.2,1.5-2.1,1.3
	c-0.2,0-0.3-0.1-0.5-0.2c-1.5-0.9-3.3,0.8-2.4,2.4c0.6,1,0.1,2.3-1.1,2.6c-1.8,0.4-1.8,2.9,0,3.4c0.9,0.2,1.5,1.2,1.3,2.1
	c0,0.2-0.1,0.3-0.2,0.5c-0.9,1.5,0.8,3.3,2.4,2.4c0.8-0.5,1.9-0.2,2.4,0.6c0.1,0.2,0.2,0.3,0.2,0.5c0.4,1.8,2.9,1.8,3.4,0
	c0.2-0.9,1.2-1.5,2.1-1.3c0.2,0,0.3,0.1,0.5,0.2c1.5,0.9,3.3-0.8,2.4-2.4c-0.5-0.8-0.2-1.9,0.6-2.4c0.2-0.1,0.3-0.2,0.5-0.2
	c1.8-0.4,1.8-2.9,0-3.4c-0.9-0.2-1.5-1.2-1.3-2.1c0-0.2,0.1-0.3,0.2-0.5c0.9-1.5-0.8-3.3-2.4-2.4c-0.8,0.5-1.9,0.2-2.4-0.6
	C17.8,8.7,17.7,8.5,17.7,8.3L17.7,8.3z M16,19.4c1.9,0,3.4-1.5,3.4-3.4s-1.5-3.4-3.4-3.4s-3.4,1.5-3.4,3.4S14.1,19.4,16,19.4z"/>
</svg>
