<?xml version="1.0" encoding="utf-8"?>
<!-- Generator: Adobe Illustrator 26.5.0, SVG Export Plug-In . SVG Version: 6.00 Build 0)  -->
<svg version="1.1" id="Ebene_1" xmlns="http://www.w3.org/2000/svg" xmlns:xlink="http://www.w3.org/1999/xlink" x="0px" y="0px"
	 viewBox="0 0 32 32" style="enable-background:new 0 0 32 32;" xml:space="preserve">
<rect style="fill:#331F07;" width="32" height="32"/>
<path style="fill:#FFFFFF;" d="M19,11.5c0,1.7-1.3,3-3,3s-3-1.3-3-3s1.3-3,3-3S19,9.9,19,11.5z M24,13.5c0,1.1-0.9,2-2,2
	c-1.1,0-2-0.9-2-2s0.9-2,2-2C23.1,11.5,24,12.4,24,13.5z M20,20.5c0-2.2-1.8-4-4-4s-4,1.8-4,4v3h8V20.5z M12,13.5c0,1.1-0.9,2-2,2
	s-2-0.9-2-2s0.9-2,2-2S12,12.4,12,13.5z M22,23.5v-3c0-1-0.3-2-0.8-2.9c1.6-0.4,3.2,0.6,3.7,2.2C25,20,25,20.3,25,20.5v3H22z
	 M10.8,17.6c-0.5,0.9-0.8,1.9-0.8,2.9v3H7v-3c0-1.7,1.3-3,3-3C10.3,17.5,10.5,17.5,10.8,17.6z"/>
</svg>
