<?xml version="1.0" encoding="utf-8"?>
<!-- Generator: Adobe Illustrator 26.5.0, SVG Export Plug-In . SVG Version: 6.00 Build 0)  -->
<svg version="1.1" id="Ebene_1" xmlns="http://www.w3.org/2000/svg" xmlns:xlink="http://www.w3.org/1999/xlink" x="0px" y="0px"
	 viewBox="0 0 32 32" style="enable-background:new 0 0 32 32;" xml:space="preserve">
	<style>
	.mail-theme-background {
		fill: #0078e6;
		fill:var(--mail-background-color, #0078e6);
	}
	.mail-theme-color {
		fill:var(--mail-color, #ffffff);
	}
	</style>
<rect class="mail-theme-background" width="32" height="32"/>
<path class="mail-theme-color" style="fill-rule:evenodd;clip-rule:evenodd;" d="M16,25c5,0,9-4,9-9s-4-9-9-9s-9,4-9,9S11,25,16,25z M17.1,11.5
	c0-0.6-0.5-1.1-1.1-1.1s-1.1,0.5-1.1,1.1V16c0,0.3,0.1,0.6,0.3,0.8l3.2,3.2c0.4,0.4,1.2,0.4,1.6,0c0.4-0.4,0.4-1.2,0-1.6l-2.9-2.9
	V11.5z"/>
</svg>
