<?xml version="1.0" encoding="utf-8"?>
<!-- Generator: Adobe Illustrator 26.5.0, SVG Export Plug-In . SVG Version: 6.00 Build 0)  -->
<svg version="1.1" id="Ebene_1" xmlns="http://www.w3.org/2000/svg" xmlns:xlink="http://www.w3.org/1999/xlink" x="0px" y="0px"
	 viewBox="0 0 16 16" style="enable-background:new 0 0 16 16;" xml:space="preserve">
<g>
	<path d="M4.3,14H3V2h7v2.5C10,4.8,10.2,5,10.5,5H13v2.2c0.3,0.1,0.7,0.2,1,0.3V3.9c0-0.3-0.1-0.5-0.3-0.7l-1.9-1.9
		C11.6,1.1,11.4,1,11.1,1H2.5C2.2,1,2,1.2,2,1.5v13C2,14.8,2.2,15,2.5,15h2.2C4.5,14.7,4.4,14.3,4.3,14z M11,2l2,2h-2V2z"/>
	<path d="M11.2,9h-0.1C8.2,9,6,10.6,6,12.5S8.1,16,10.9,16s5.1-1.6,5.1-3.5S13.8,9.1,11.2,9z M11.1,9.8c0.1,0,0.3,0.1,0.3,0.2
		s-0.1,0.2-0.3,0.2c-0.6,0-1.2,0.5-1.2,1.1c0,0.1-0.1,0.2-0.3,0.2s-0.3-0.1-0.3-0.2C9.3,10.5,10.1,9.8,11.1,9.8z M10.9,15
		c-2.2,0-4-1.1-4-2.5c0-0.9,0.7-1.6,1.8-2.1c-0.2,0.3-0.2,0.7-0.2,1.1c0,1.4,1.1,2.5,2.5,2.5s2.5-1.1,2.5-2.5c0-0.4-0.1-0.7-0.2-1
		c1,0.5,1.7,1.2,1.7,2C15,13.9,13.2,15,10.9,15z"/>
</g>
<g>
	<path d="M5.2,7.5L5.2,8C5.1,8,5,8,4.9,8C4.7,8,4.6,8,4.5,7.9S4.3,7.8,4.3,7.7c0-0.1-0.1-0.3-0.1-0.7V5.1H3.9V4.7h0.3V3.8l0.5-0.3
		v1.2h0.5v0.4H4.7v1.9c0,0.2,0,0.3,0,0.3c0,0.1,0.1,0.1,0.2,0.1C5,7.5,5.1,7.5,5.2,7.5z"/>
	<path d="M5.3,8l1-1.7L5.4,4.7h0.6l0.4,0.8c0.1,0.1,0.1,0.3,0.2,0.4c0.1-0.1,0.1-0.3,0.2-0.4l0.5-0.8h0.6L6.8,6.2l1,1.8H7.3L6.7,7
		L6.6,6.7L5.9,8H5.3z"/>
	<path d="M9.3,7.5L9.3,8C9.2,8,9.1,8,9,8C8.8,8,8.7,8,8.6,7.9S8.4,7.8,8.4,7.7c0-0.1-0.1-0.3-0.1-0.7V5.1H8V4.7h0.3V3.8l0.5-0.3v1.2
		h0.5v0.4H8.8v1.9c0,0.2,0,0.3,0,0.3c0,0.1,0.1,0.1,0.2,0.1C9.1,7.5,9.2,7.5,9.3,7.5z"/>
</g>
</svg>
